<svg width="30" height="30" viewBox="0 0 30 30" fill="none" xmlns="http://www.w3.org/2000/svg">
<path d="M22.5 7.49996C22.2655 7.26562 21.9477 7.13397 21.6162 7.13397C21.2847 7.13397 20.9669 7.26562 20.7325 7.49996L15 13.2325L9.26746 7.49996C9.03305 7.26562 8.71516 7.13397 8.38371 7.13397C8.05225 7.13397 7.73437 7.26562 7.49996 7.49996C7.26562 7.73437 7.13397 8.05225 7.13397 8.38371C7.13397 8.71516 7.26562 9.03305 7.49996 9.26746L13.2325 15L7.49996 20.7325C7.26562 20.9669 7.13397 21.2847 7.13397 21.6162C7.13397 21.9477 7.26562 22.2655 7.49996 22.5C7.73437 22.7343 8.05225 22.8659 8.38371 22.8659C8.71516 22.8659 9.03305 22.7343 9.26746 22.5L15 16.7675L20.7325 22.5C20.9669 22.7343 21.2847 22.8659 21.6162 22.8659C21.9477 22.8659 22.2655 22.7343 22.5 22.5C22.7343 22.2655 22.8659 21.9477 22.8659 21.6162C22.8659 21.2847 22.7343 20.9669 22.5 20.7325L16.7675 15L22.5 9.26746C22.7343 9.03305 22.8659 8.71516 22.8659 8.38371C22.8659 8.05225 22.7343 7.73437 22.5 7.49996V7.49996Z" fill="#767676"/>
</svg>
