<svg width="2001" height="2220" viewBox="0 0 2001 2220" fill="none" xmlns="http://www.w3.org/2000/svg">
<rect x="487.114" y="1384.13" width="1017.23" height="213.845" fill="#FFEAFF"/>
<rect x="759.068" y="1384.51" width="24.9567" height="147.819" fill="#A86FBB"/>
<rect x="908.808" y="1384.51" width="24.9567" height="147.819" fill="#A86FBB"/>
<rect x="1058.55" y="1384.51" width="24.9567" height="147.819" fill="#A86FBB"/>
<rect x="1208.29" y="1384.51" width="24.9567" height="147.819" fill="#A86FBB"/>
<rect x="833.938" y="1384.51" width="24.9567" height="78.8369" fill="#A86FBB"/>
<rect x="983.678" y="1384.51" width="24.9567" height="78.8369" fill="#A86FBB"/>
<rect x="1133.42" y="1384.51" width="24.9567" height="78.8369" fill="#A86FBB"/>
<rect width="259.901" height="1843.47" transform="matrix(0.941349 -0.340618 0.347703 0.936435 863.104 314.744)" fill="#E8AEFD"/>
<rect width="259.875" height="98.3882" transform="matrix(0.941349 -0.340618 0.347703 0.936435 1470.05 1949.26)" fill="#FFEAFF"/>
<path d="M1504.37 2041.35L1748.88 1952.88L1692.88 2147.87L1504.37 2041.35Z" fill="#FFEAFF"/>
<path d="M1693.62 2148.5L1594.75 2092.41L1722.4 2044.98L1693.62 2148.5Z" fill="#E8AEFD"/>
<rect width="259.528" height="114.664" transform="matrix(0.941349 -0.340618 0.347703 0.936435 1004.02 693.117)" fill="#FFEAFF"/>
<rect width="242.296" height="1854.34" rx="121.148" transform="matrix(0.939145 0.347108 -0.340901 0.938789 847.059 358.16)" fill="#E8AEFD"/>
<path d="M803.904 476.636C888.148 535.531 938.254 552.438 1031.55 560.79L997.504 654.531C997.504 654.531 913.914 558.129 883.681 612.454C853.448 666.778 769.858 570.377 769.858 570.377L803.904 476.636Z" fill="#FFEAFF"/>
<path d="M813.504 449.444C832.198 397.547 889.439 370.909 941.356 389.945L981.11 404.522C1033.03 423.558 1059.96 481.061 1041.26 532.957L1007.46 626.791L779.703 543.278L813.504 449.444Z" fill="#FFEAFF"/>
<path d="M1151.38 382.159C1107.77 511.453 997.836 590.64 905.842 559.029C813.847 527.417 774.626 396.978 818.238 267.684C861.849 138.39 1063.77 90.8145 1063.77 90.8145C1063.77 90.8145 1194.99 252.865 1151.38 382.159Z" fill="#FFEAFF"/>
</svg>
